{"title":"Pharrell Williams ft.Daft Punk - Gust of Wind (2014.Funk)","uid":11245907,"size":152403375,"categoryP":"video","categoryS":"music_videos","magnet":"?xt=urn:btih:1200fd28c24f24c1a31f3a7787956a2e7595aed1&amp;dn=Pharrell+Williams+ft.Daft+Punk+-+Gust+of+Wind+%282014.Funk%29&amp;tr=udp%3A%2F%2Ftracker.openbittorrent.com%3A80&amp;tr=udp%3A%2F%2Fopen.demonii.com%3A1337&amp;tr=udp%3A%2F%2Ftracker.coppersurfer.tk%3A6969&amp;tr=udp%3A%2F%2Fexodus.desync.com%3A6969","seeders":1,"leechers":0,"uploader":"MeRaDil","files":-1,"time":1413739066,"description":"PHARRELL WILLIAMS ft.DAFT PUNK - GUST OF WIND\n\n\n &lt;a href=&quot;\nhttp://gifyu.com/images/Williams.png&quot; rel=&quot;nofollow&quot; target=&quot;_NEW&quot;&gt;\nhttp://gifyu.com/images/Williams.png&lt;/a&gt;\n\n\nMPEG4 MUSIC VID\nGeneral\nComplete name                            : Pharrell Williams ft. Daft Punk - Gust of Wind\nFormat                                   : MPEG-4\nFormat profile                           : Base Media\nCodec ID                                 : isom\nFile size                                : 145 MiB\nDuration                                 : 4mn 59s\nOverall bit rate                         : 4 077 Kbps\nMusicVid name                            : Gust of Wind\nAlbum                                    : GIRL\nPerformer                                : Pharrell Williams ft. Daft Punk\nGenre                                    : Funk\nContentType                              : Music Video\nRecorded date                            : 2014\nCopyright                                : Pharrell Williams\nCover                                    : Yes\nRating                                   : ***\nMake                                     : MeRaDil\noday                                     : 07-10-2014 USA\nlabl                                     : Columbia\nrelease                                  : USA - october 7 - 2014\nPart_ID                                  : Gust of Wind\n\nVideo\nID                                       : 1\nFormat                                   : AVC\nFormat/Info                              : Advanced Video Codec\nFormat profile                           : &lt;a class=&quot;__cf_email__&quot; href=&quot;/cdn-cgi/l/email-protection&quot; data-cfemail=&quot;4109282629010d756f71&quot;&gt;[email&amp;#160;protected]&lt;/a&gt;&lt;script cf-hash='f9e31' type=&quot;text/javascript&quot;&gt;\n/* &lt;![CDATA[ */!function(){try{var t=&quot;currentScript&quot;in document?document.currentScript:function(){for(var t=document.getElementsByTagName(&quot;script&quot;),e=t.length;e--;)if(t[e].getAttribute(&quot;cf-hash&quot;))return t[e]}();if(t&amp;&amp;t.previousSibling){var e,r,n,i,c=t.previousSibling,a=c.getAttribute(&quot;data-cfemail&quot;);if(a){for(e=&quot;&quot;,r=parseInt(a.substr(0,2),16),n=2;a.length-n;n+=2)i=parseInt(a.substr(n,2),16)^r,e+=String.fromCharCode(i);e=document.createTextNode(e),c.parentNode.replaceChild(e,c)}}}catch(u){}}();/* ]]&gt; */&lt;/script&gt;\nFormat settings, CABAC                   : Yes\nFormat settings, ReFrames                : 2 frames\nCodec ID                                 : avc1\nCodec ID/Info                            : Advanced Video Coding\nDuration                                 : 4mn 58s\nBit rate                                 : 3 814 Kbps\nWidth                                    : 1 920 pixels\nHeight                                   : 1 080 pixels\nDisplay aspect ratio                     : 16:9\nFrame rate mode                          : Variable\nFrame rate                               : 23.976 fps\nMinimum frame rate                       : 23.974 fps\nMaximum frame rate                       : 23.981 fps\nColor space                              : YUV\nChroma subsampling                       : 4:2:0\nBit depth                                : 8 bits\nScan type                                : Progressive\nBits/(Pixel*Frame)                       : 0.077\nStream size                              : 136 MiB (94%)\n\nAudio\nID                                       : 2\nFormat                                   : AAC\nFormat/Info                              : Advanced Audio Codec\nFormat profile                           : LC\nCodec ID                                 : 40\nDuration                                 : 4mn 59s\nBit rate mode                            : Constant\nBit rate                                 : 256 Kbps\nChannel(s)                               : 2 channels\nChannel positions                        : Front: L R\nSampling rate                            : 44.1 KHz\nCompression mode                         : Lossy\nStream size                              : 9.13 MiB (6%)\n &lt;a href=&quot;\nhttps://thepiratebay.se/user/MeRaDil&quot; rel=&quot;nofollow&quot; target=&quot;_NEW&quot;&gt;\nhttps://thepiratebay.se/user/MeRaDil&lt;/a&gt;\n\nPharrell Williams * Daft Punk * GIRL * Promo * Funk\n\n:)","torrent":{"xt":"urn:btih:1200fd28c24f24c1a31f3a7787956a2e7595aed1","amp;dn":"Pharrell+Williams+ft.Daft+Punk+-+Gust+of+Wind+%282014.Funk%29","amp;tr":["udp%3A%2F%2Ftracker.openbittorrent.com%3A80","udp%3A%2F%2Fopen.demonii.com%3A1337","udp%3A%2F%2Ftracker.coppersurfer.tk%3A6969","udp%3A%2F%2Fexodus.desync.com%3A6969"],"infoHash":"1200fd28c24f24c1a31f3a7787956a2e7595aed1","infoHashBuffer":{"type":"Buffer","data":[18,0,253,40,194,79,36,193,163,31,58,119,135,149,106,46,117,149,174,209]},"announce":[],"urlList":[]}}